<mxfile host="app.diagrams.net" modified="2023-11-13T23:36:33.895Z" agent="Mozilla/5.0 (Windows NT 10.0; Win64; x64) AppleWebKit/537.36 (KHTML, like Gecko) Chrome/119.0.0.0 Safari/537.36" etag="DUUVr2kQFnG9ufADoeyi" version="22.1.0" type="device">
  <diagram name="Trang-1" id="8WOk82VxNDKTeJKdt3mN">
    <mxGraphModel dx="1167" dy="736" grid="1" gridSize="10" guides="1" tooltips="1" connect="1" arrows="1" fold="1" page="1" pageScale="1" pageWidth="827" pageHeight="1169" math="0" shadow="0">
      <root>
        <mxCell id="0" />
        <mxCell id="1" parent="0" />
        <mxCell id="_pkrtM7WGQT2VM3EGbci-3" style="edgeStyle=orthogonalEdgeStyle;rounded=0;orthogonalLoop=1;jettySize=auto;html=1;entryX=0.5;entryY=0;entryDx=0;entryDy=0;" parent="1" source="_pkrtM7WGQT2VM3EGbci-1" target="h4dxqBW4cxkd71x_Y7fE-1" edge="1">
          <mxGeometry relative="1" as="geometry">
            <mxPoint x="390" y="160" as="targetPoint" />
          </mxGeometry>
        </mxCell>
        <mxCell id="_pkrtM7WGQT2VM3EGbci-1" value="start" style="ellipse;whiteSpace=wrap;html=1;" parent="1" vertex="1">
          <mxGeometry x="320" y="20" width="120" height="80" as="geometry" />
        </mxCell>
        <mxCell id="_pkrtM7WGQT2VM3EGbci-15" value="end" style="ellipse;whiteSpace=wrap;html=1;" parent="1" vertex="1">
          <mxGeometry x="1100" y="1220" width="120" height="80" as="geometry" />
        </mxCell>
        <mxCell id="h4dxqBW4cxkd71x_Y7fE-2" style="edgeStyle=orthogonalEdgeStyle;rounded=0;orthogonalLoop=1;jettySize=auto;html=1;" parent="1" source="h4dxqBW4cxkd71x_Y7fE-1" target="h4dxqBW4cxkd71x_Y7fE-3" edge="1">
          <mxGeometry relative="1" as="geometry">
            <mxPoint x="370" y="300" as="targetPoint" />
            <Array as="points">
              <mxPoint x="360" y="265" />
              <mxPoint x="371" y="265" />
            </Array>
          </mxGeometry>
        </mxCell>
        <mxCell id="h4dxqBW4cxkd71x_Y7fE-1" value="a,b,choice" style="shape=parallelogram;perimeter=parallelogramPerimeter;whiteSpace=wrap;html=1;fixedSize=1;" parent="1" vertex="1">
          <mxGeometry x="300" y="170" width="120" height="60" as="geometry" />
        </mxCell>
        <mxCell id="h4dxqBW4cxkd71x_Y7fE-33" style="edgeStyle=orthogonalEdgeStyle;rounded=0;orthogonalLoop=1;jettySize=auto;html=1;entryX=0;entryY=0.5;entryDx=0;entryDy=0;" parent="1" source="h4dxqBW4cxkd71x_Y7fE-3" target="h4dxqBW4cxkd71x_Y7fE-9" edge="1">
          <mxGeometry relative="1" as="geometry" />
        </mxCell>
        <mxCell id="h4dxqBW4cxkd71x_Y7fE-34" style="edgeStyle=orthogonalEdgeStyle;rounded=0;orthogonalLoop=1;jettySize=auto;html=1;entryX=0;entryY=0.5;entryDx=0;entryDy=0;" parent="1" source="h4dxqBW4cxkd71x_Y7fE-3" target="h4dxqBW4cxkd71x_Y7fE-12" edge="1">
          <mxGeometry relative="1" as="geometry" />
        </mxCell>
        <mxCell id="h4dxqBW4cxkd71x_Y7fE-35" style="edgeStyle=orthogonalEdgeStyle;rounded=0;orthogonalLoop=1;jettySize=auto;html=1;entryX=0;entryY=0.5;entryDx=0;entryDy=0;" parent="1" source="h4dxqBW4cxkd71x_Y7fE-3" target="h4dxqBW4cxkd71x_Y7fE-15" edge="1">
          <mxGeometry relative="1" as="geometry" />
        </mxCell>
        <mxCell id="h4dxqBW4cxkd71x_Y7fE-36" style="edgeStyle=orthogonalEdgeStyle;rounded=0;orthogonalLoop=1;jettySize=auto;html=1;entryX=0;entryY=0.5;entryDx=0;entryDy=0;" parent="1" source="h4dxqBW4cxkd71x_Y7fE-3" target="h4dxqBW4cxkd71x_Y7fE-18" edge="1">
          <mxGeometry relative="1" as="geometry" />
        </mxCell>
        <mxCell id="h4dxqBW4cxkd71x_Y7fE-39" style="edgeStyle=orthogonalEdgeStyle;rounded=0;orthogonalLoop=1;jettySize=auto;html=1;entryX=0;entryY=0.5;entryDx=0;entryDy=0;" parent="1" source="h4dxqBW4cxkd71x_Y7fE-3" target="h4dxqBW4cxkd71x_Y7fE-25" edge="1">
          <mxGeometry relative="1" as="geometry" />
        </mxCell>
        <mxCell id="h4dxqBW4cxkd71x_Y7fE-41" style="edgeStyle=orthogonalEdgeStyle;rounded=0;orthogonalLoop=1;jettySize=auto;html=1;entryX=0;entryY=0.5;entryDx=0;entryDy=0;" parent="1" source="h4dxqBW4cxkd71x_Y7fE-3" target="h4dxqBW4cxkd71x_Y7fE-31" edge="1">
          <mxGeometry relative="1" as="geometry" />
        </mxCell>
        <mxCell id="h4dxqBW4cxkd71x_Y7fE-3" value="choice=?" style="rhombus;whiteSpace=wrap;html=1;" parent="1" vertex="1">
          <mxGeometry x="310" y="360" width="116" height="100" as="geometry" />
        </mxCell>
        <mxCell id="h4dxqBW4cxkd71x_Y7fE-7" style="edgeStyle=orthogonalEdgeStyle;rounded=0;orthogonalLoop=1;jettySize=auto;html=1;" parent="1" source="h4dxqBW4cxkd71x_Y7fE-4" target="h4dxqBW4cxkd71x_Y7fE-6" edge="1">
          <mxGeometry relative="1" as="geometry" />
        </mxCell>
        <mxCell id="h4dxqBW4cxkd71x_Y7fE-4" value="choice=1" style="rhombus;whiteSpace=wrap;html=1;" parent="1" vertex="1">
          <mxGeometry x="560" y="365" width="80" height="80" as="geometry" />
        </mxCell>
        <mxCell id="h4dxqBW4cxkd71x_Y7fE-5" style="edgeStyle=orthogonalEdgeStyle;rounded=0;orthogonalLoop=1;jettySize=auto;html=1;entryX=0.063;entryY=0.413;entryDx=0;entryDy=0;entryPerimeter=0;" parent="1" source="h4dxqBW4cxkd71x_Y7fE-3" target="h4dxqBW4cxkd71x_Y7fE-4" edge="1">
          <mxGeometry relative="1" as="geometry" />
        </mxCell>
        <mxCell id="h4dxqBW4cxkd71x_Y7fE-6" value="result=a+b" style="shape=parallelogram;perimeter=parallelogramPerimeter;whiteSpace=wrap;html=1;fixedSize=1;" parent="1" vertex="1">
          <mxGeometry x="740" y="375" width="120" height="60" as="geometry" />
        </mxCell>
        <mxCell id="h4dxqBW4cxkd71x_Y7fE-8" style="edgeStyle=orthogonalEdgeStyle;rounded=0;orthogonalLoop=1;jettySize=auto;html=1;" parent="1" source="h4dxqBW4cxkd71x_Y7fE-9" target="h4dxqBW4cxkd71x_Y7fE-10" edge="1">
          <mxGeometry relative="1" as="geometry" />
        </mxCell>
        <mxCell id="h4dxqBW4cxkd71x_Y7fE-9" value="choice=2" style="rhombus;whiteSpace=wrap;html=1;" parent="1" vertex="1">
          <mxGeometry x="560" y="505" width="80" height="80" as="geometry" />
        </mxCell>
        <mxCell id="h4dxqBW4cxkd71x_Y7fE-10" value="result=a-b" style="shape=parallelogram;perimeter=parallelogramPerimeter;whiteSpace=wrap;html=1;fixedSize=1;" parent="1" vertex="1">
          <mxGeometry x="740" y="515" width="120" height="60" as="geometry" />
        </mxCell>
        <mxCell id="h4dxqBW4cxkd71x_Y7fE-11" style="edgeStyle=orthogonalEdgeStyle;rounded=0;orthogonalLoop=1;jettySize=auto;html=1;" parent="1" source="h4dxqBW4cxkd71x_Y7fE-12" target="h4dxqBW4cxkd71x_Y7fE-13" edge="1">
          <mxGeometry relative="1" as="geometry" />
        </mxCell>
        <mxCell id="h4dxqBW4cxkd71x_Y7fE-12" value="choice=3" style="rhombus;whiteSpace=wrap;html=1;" parent="1" vertex="1">
          <mxGeometry x="560" y="630" width="80" height="80" as="geometry" />
        </mxCell>
        <mxCell id="h4dxqBW4cxkd71x_Y7fE-13" value="result=a*b" style="shape=parallelogram;perimeter=parallelogramPerimeter;whiteSpace=wrap;html=1;fixedSize=1;" parent="1" vertex="1">
          <mxGeometry x="740" y="640" width="120" height="60" as="geometry" />
        </mxCell>
        <mxCell id="h4dxqBW4cxkd71x_Y7fE-14" style="edgeStyle=orthogonalEdgeStyle;rounded=0;orthogonalLoop=1;jettySize=auto;html=1;" parent="1" source="h4dxqBW4cxkd71x_Y7fE-15" target="h4dxqBW4cxkd71x_Y7fE-16" edge="1">
          <mxGeometry relative="1" as="geometry" />
        </mxCell>
        <mxCell id="h4dxqBW4cxkd71x_Y7fE-15" value="choice=4" style="rhombus;whiteSpace=wrap;html=1;" parent="1" vertex="1">
          <mxGeometry x="560" y="760" width="80" height="80" as="geometry" />
        </mxCell>
        <mxCell id="h4dxqBW4cxkd71x_Y7fE-16" value="result=a/b" style="shape=parallelogram;perimeter=parallelogramPerimeter;whiteSpace=wrap;html=1;fixedSize=1;" parent="1" vertex="1">
          <mxGeometry x="740" y="770" width="120" height="60" as="geometry" />
        </mxCell>
        <mxCell id="h4dxqBW4cxkd71x_Y7fE-17" style="edgeStyle=orthogonalEdgeStyle;rounded=0;orthogonalLoop=1;jettySize=auto;html=1;" parent="1" source="h4dxqBW4cxkd71x_Y7fE-18" target="h4dxqBW4cxkd71x_Y7fE-19" edge="1">
          <mxGeometry relative="1" as="geometry" />
        </mxCell>
        <mxCell id="h4dxqBW4cxkd71x_Y7fE-18" value="choice=5" style="rhombus;whiteSpace=wrap;html=1;" parent="1" vertex="1">
          <mxGeometry x="560" y="860" width="80" height="80" as="geometry" />
        </mxCell>
        <mxCell id="h4dxqBW4cxkd71x_Y7fE-19" value="result=a%b" style="shape=parallelogram;perimeter=parallelogramPerimeter;whiteSpace=wrap;html=1;fixedSize=1;" parent="1" vertex="1">
          <mxGeometry x="740" y="870" width="120" height="60" as="geometry" />
        </mxCell>
        <mxCell id="h4dxqBW4cxkd71x_Y7fE-21" style="edgeStyle=orthogonalEdgeStyle;rounded=0;orthogonalLoop=1;jettySize=auto;html=1;" parent="1" source="h4dxqBW4cxkd71x_Y7fE-22" target="h4dxqBW4cxkd71x_Y7fE-23" edge="1">
          <mxGeometry relative="1" as="geometry" />
        </mxCell>
        <mxCell id="h4dxqBW4cxkd71x_Y7fE-38" style="edgeStyle=orthogonalEdgeStyle;rounded=0;orthogonalLoop=1;jettySize=auto;html=1;entryX=1;entryY=0.5;entryDx=0;entryDy=0;" parent="1" source="h4dxqBW4cxkd71x_Y7fE-22" target="h4dxqBW4cxkd71x_Y7fE-3" edge="1">
          <mxGeometry relative="1" as="geometry" />
        </mxCell>
        <mxCell id="h4dxqBW4cxkd71x_Y7fE-22" value="choice=6" style="rhombus;whiteSpace=wrap;html=1;" parent="1" vertex="1">
          <mxGeometry x="560" y="990" width="80" height="80" as="geometry" />
        </mxCell>
        <mxCell id="h4dxqBW4cxkd71x_Y7fE-23" value="result=UCLN(a,b)" style="shape=parallelogram;perimeter=parallelogramPerimeter;whiteSpace=wrap;html=1;fixedSize=1;" parent="1" vertex="1">
          <mxGeometry x="740" y="1000" width="120" height="60" as="geometry" />
        </mxCell>
        <mxCell id="h4dxqBW4cxkd71x_Y7fE-24" style="edgeStyle=orthogonalEdgeStyle;rounded=0;orthogonalLoop=1;jettySize=auto;html=1;" parent="1" source="h4dxqBW4cxkd71x_Y7fE-25" target="h4dxqBW4cxkd71x_Y7fE-26" edge="1">
          <mxGeometry relative="1" as="geometry" />
        </mxCell>
        <mxCell id="h4dxqBW4cxkd71x_Y7fE-25" value="choice=7" style="rhombus;whiteSpace=wrap;html=1;" parent="1" vertex="1">
          <mxGeometry x="550" y="1110" width="80" height="80" as="geometry" />
        </mxCell>
        <mxCell id="h4dxqBW4cxkd71x_Y7fE-26" value="result=BCNN(a,b)" style="shape=parallelogram;perimeter=parallelogramPerimeter;whiteSpace=wrap;html=1;fixedSize=1;" parent="1" vertex="1">
          <mxGeometry x="730" y="1120" width="120" height="60" as="geometry" />
        </mxCell>
        <mxCell id="h4dxqBW4cxkd71x_Y7fE-27" style="edgeStyle=orthogonalEdgeStyle;rounded=0;orthogonalLoop=1;jettySize=auto;html=1;entryX=0;entryY=0.5;entryDx=0;entryDy=0;" parent="1" source="h4dxqBW4cxkd71x_Y7fE-28" target="_pkrtM7WGQT2VM3EGbci-15" edge="1">
          <mxGeometry relative="1" as="geometry">
            <mxPoint x="740" y="1250" as="targetPoint" />
          </mxGeometry>
        </mxCell>
        <mxCell id="h4dxqBW4cxkd71x_Y7fE-28" value="choice=8" style="rhombus;whiteSpace=wrap;html=1;" parent="1" vertex="1">
          <mxGeometry x="550" y="1210" width="80" height="80" as="geometry" />
        </mxCell>
        <mxCell id="h4dxqBW4cxkd71x_Y7fE-30" style="edgeStyle=orthogonalEdgeStyle;rounded=0;orthogonalLoop=1;jettySize=auto;html=1;entryX=0;entryY=0.5;entryDx=0;entryDy=0;" parent="1" source="h4dxqBW4cxkd71x_Y7fE-31" target="h4dxqBW4cxkd71x_Y7fE-42" edge="1">
          <mxGeometry relative="1" as="geometry">
            <mxPoint x="740" y="1370" as="targetPoint" />
          </mxGeometry>
        </mxCell>
        <mxCell id="h4dxqBW4cxkd71x_Y7fE-31" value="choice: default" style="rhombus;whiteSpace=wrap;html=1;" parent="1" vertex="1">
          <mxGeometry x="540" y="1330" width="120" height="90" as="geometry" />
        </mxCell>
        <mxCell id="h4dxqBW4cxkd71x_Y7fE-40" style="edgeStyle=orthogonalEdgeStyle;rounded=0;orthogonalLoop=1;jettySize=auto;html=1;entryX=0;entryY=0.5;entryDx=0;entryDy=0;" parent="1" source="h4dxqBW4cxkd71x_Y7fE-3" target="h4dxqBW4cxkd71x_Y7fE-28" edge="1">
          <mxGeometry relative="1" as="geometry">
            <Array as="points">
              <mxPoint x="488" y="410" />
              <mxPoint x="488" y="1250" />
            </Array>
          </mxGeometry>
        </mxCell>
        <mxCell id="h4dxqBW4cxkd71x_Y7fE-53" style="edgeStyle=orthogonalEdgeStyle;rounded=0;orthogonalLoop=1;jettySize=auto;html=1;" parent="1" source="h4dxqBW4cxkd71x_Y7fE-42" edge="1">
          <mxGeometry relative="1" as="geometry">
            <mxPoint x="950" y="400" as="targetPoint" />
          </mxGeometry>
        </mxCell>
        <mxCell id="h4dxqBW4cxkd71x_Y7fE-42" value="&#xa;&lt;div style=&quot;color: rgb(212, 212, 212); background-color: rgb(30, 30, 30); font-family: Consolas, &amp;quot;Courier New&amp;quot;, monospace; font-weight: normal; font-size: 14px; line-height: 19px;&quot;&gt;&lt;div&gt;&lt;span style=&quot;color: #d4d4d4;&quot;&gt;(&lt;/span&gt;&lt;span style=&quot;color: #ce9178;&quot;&gt;&quot;Vui long chon tu 1-8\n&quot;&lt;/span&gt;&lt;span style=&quot;color: #d4d4d4;&quot;&gt;)&lt;/span&gt;&lt;/div&gt;&lt;/div&gt;&#xa;&#xa;" style="ellipse;whiteSpace=wrap;html=1;" parent="1" vertex="1">
          <mxGeometry x="760" y="1350" width="120" height="80" as="geometry" />
        </mxCell>
        <mxCell id="h4dxqBW4cxkd71x_Y7fE-46" value="" style="endArrow=classic;html=1;rounded=0;exitX=1;exitY=0.5;exitDx=0;exitDy=0;" parent="1" source="h4dxqBW4cxkd71x_Y7fE-6" edge="1">
          <mxGeometry width="50" height="50" relative="1" as="geometry">
            <mxPoint x="520" y="390" as="sourcePoint" />
            <mxPoint x="370" y="290" as="targetPoint" />
            <Array as="points">
              <mxPoint x="1050" y="405" />
              <mxPoint x="1050" y="290" />
            </Array>
          </mxGeometry>
        </mxCell>
        <mxCell id="h4dxqBW4cxkd71x_Y7fE-47" value="" style="curved=1;endArrow=classic;html=1;rounded=0;exitX=1;exitY=0.5;exitDx=0;exitDy=0;" parent="1" source="h4dxqBW4cxkd71x_Y7fE-10" edge="1">
          <mxGeometry width="50" height="50" relative="1" as="geometry">
            <mxPoint x="860" y="570" as="sourcePoint" />
            <mxPoint x="880" y="410" as="targetPoint" />
            <Array as="points">
              <mxPoint x="910" y="570" />
              <mxPoint x="880" y="530" />
              <mxPoint x="890" y="520" />
              <mxPoint x="860" y="520" />
              <mxPoint x="880" y="490" />
              <mxPoint x="880" y="460" />
            </Array>
          </mxGeometry>
        </mxCell>
        <mxCell id="h4dxqBW4cxkd71x_Y7fE-48" value="" style="curved=1;endArrow=classic;html=1;rounded=0;exitX=1;exitY=0;exitDx=0;exitDy=0;" parent="1" source="h4dxqBW4cxkd71x_Y7fE-13" edge="1">
          <mxGeometry width="50" height="50" relative="1" as="geometry">
            <mxPoint x="860" y="630" as="sourcePoint" />
            <mxPoint x="890" y="400" as="targetPoint" />
            <Array as="points">
              <mxPoint x="910" y="630" />
              <mxPoint x="860" y="580" />
            </Array>
          </mxGeometry>
        </mxCell>
        <mxCell id="h4dxqBW4cxkd71x_Y7fE-49" value="" style="endArrow=classic;html=1;rounded=0;exitX=1;exitY=0.5;exitDx=0;exitDy=0;" parent="1" source="h4dxqBW4cxkd71x_Y7fE-16" edge="1">
          <mxGeometry width="50" height="50" relative="1" as="geometry">
            <mxPoint x="860" y="820" as="sourcePoint" />
            <mxPoint x="900" y="410" as="targetPoint" />
            <Array as="points">
              <mxPoint x="890" y="800" />
            </Array>
          </mxGeometry>
        </mxCell>
        <mxCell id="h4dxqBW4cxkd71x_Y7fE-50" value="" style="endArrow=classic;html=1;rounded=0;exitX=1;exitY=0.75;exitDx=0;exitDy=0;" parent="1" edge="1">
          <mxGeometry width="50" height="50" relative="1" as="geometry">
            <mxPoint x="850.003846153846" y="911.5384615384617" as="sourcePoint" />
            <mxPoint x="910" y="400" as="targetPoint" />
            <Array as="points">
              <mxPoint x="910" y="910" />
              <mxPoint x="910" y="810" />
              <mxPoint x="910" y="670" />
            </Array>
          </mxGeometry>
        </mxCell>
        <mxCell id="h4dxqBW4cxkd71x_Y7fE-51" value="" style="endArrow=classic;html=1;rounded=0;exitX=1;exitY=0.5;exitDx=0;exitDy=0;" parent="1" source="h4dxqBW4cxkd71x_Y7fE-26" edge="1">
          <mxGeometry width="50" height="50" relative="1" as="geometry">
            <mxPoint x="900" y="1090" as="sourcePoint" />
            <mxPoint x="1030" y="400" as="targetPoint" />
            <Array as="points">
              <mxPoint x="1030" y="1150" />
              <mxPoint x="1030" y="640" />
            </Array>
          </mxGeometry>
        </mxCell>
        <mxCell id="h4dxqBW4cxkd71x_Y7fE-52" value="" style="endArrow=classic;html=1;rounded=0;exitX=1;exitY=0.75;exitDx=0;exitDy=0;" parent="1" source="h4dxqBW4cxkd71x_Y7fE-23" edge="1">
          <mxGeometry width="50" height="50" relative="1" as="geometry">
            <mxPoint x="860" y="1130" as="sourcePoint" />
            <mxPoint x="920" y="400" as="targetPoint" />
            <Array as="points">
              <mxPoint x="920" y="1040" />
            </Array>
          </mxGeometry>
        </mxCell>
      </root>
    </mxGraphModel>
  </diagram>
</mxfile>
